<?xml version="1.0" standalone="no"?>
<!DOCTYPE svg PUBLIC "-//W3C//DTD SVG 20010904//EN"
 "http://www.w3.org/TR/2001/REC-SVG-20010904/DTD/svg10.dtd">
<svg version="1.0" xmlns="http://www.w3.org/2000/svg"
 width="600.000000pt" height="600.000000pt" viewBox="0 0 600.000000 600.000000"
 preserveAspectRatio="xMidYMid meet">
<metadata>
Created by potrace 1.11, written by Peter Selinger 2001-2013
</metadata>
<g transform="translate(0.000000,600.000000) scale(0.100000,-0.100000)"
fill="#000000" stroke="none">
<path d="M592 2996 l3 -1189 350 1 c193 0 359 1 371 1 l21 1 -1 1188 -1 1187
-373 0 -372 0 2 -1189z"/>
<path d="M1680 2998 c0 -1124 1 -1188 18 -1189 18 -1 564 -1 648 0 l51 1 -1
811 c-1 446 2 813 7 816 4 2 7 0 7 -6 0 -5 31 -63 68 -128 38 -65 149 -260
247 -433 97 -173 186 -327 196 -342 11 -15 19 -29 19 -31 0 -2 52 -96 116
-208 133 -233 142 -248 176 -309 71 -128 91 -161 100 -166 5 -3 78 -6 161 -6
267 1 242 -3 261 37 10 19 39 74 67 121 27 47 49 89 49 94 0 5 4 10 8 12 5 2
24 32 44 68 30 56 274 487 635 1120 52 91 97 168 101 172 4 4 7 -354 7 -795
-1 -441 1 -809 3 -817 3 -13 49 -15 355 -13 194 1 358 2 365 2 9 1 12 246 12
1189 l0 1187 -509 0 c-280 0 -511 -2 -514 -5 -3 -4 -207 -369 -295 -530 -14
-25 -44 -79 -68 -120 -23 -41 -57 -102 -76 -136 -153 -281 -374 -674 -379
-674 -5 0 -65 104 -165 285 -15 28 -57 104 -94 170 -37 66 -82 147 -100 180
-18 33 -100 182 -183 330 -83 149 -164 295 -180 325 -17 30 -45 82 -63 115
l-33 60 -531 0 -530 0 0 -1187z"/>
</g>
</svg>
